<svg xmlns="http://www.w3.org/2000/svg" viewBox="0 0 512 512">
  <rect width="512" height="512" rx="96" fill="#14151A"/>
  <g>
    <!-- checkered strip -->
    <g opacity="0.9">
      <rect x="0" y="336" width="32" height="16" fill="#D7DAE0"/>
      <rect x="32" y="352" width="32" height="16" fill="#D7DAE0"/>
      <rect x="64" y="336" width="32" height="16" fill="#D7DAE0"/>
      <rect x="96" y="352" width="32" height="16" fill="#D7DAE0"/>
      <rect x="128" y="336" width="32" height="16" fill="#D7DAE0"/>
      <rect x="160" y="352" width="32" height="16" fill="#D7DAE0"/>
      <rect x="192" y="336" width="32" height="16" fill="#D7DAE0"/>
      <rect x="224" y="352" width="32" height="16" fill="#D7DAE0"/>
      <rect x="256" y="336" width="32" height="16" fill="#D7DAE0"/>
      <rect x="288" y="352" width="32" height="16" fill="#D7DAE0"/>
      <rect x="320" y="336" width="32" height="16" fill="#D7DAE0"/>
      <rect x="352" y="352" width="32" height="16" fill="#D7DAE0"/>
      <rect x="384" y="336" width="32" height="16" fill="#D7DAE0"/>
      <rect x="416" y="352" width="32" height="16" fill="#D7DAE0"/>
      <rect x="448" y="336" width="32" height="16" fill="#D7DAE0"/>
      <rect x="480" y="352" width="32" height="16" fill="#D7DAE0"/>
    </g>
  </g>
  <!-- viewfinder brackets -->
  <g stroke="#FFC93C" stroke-width="14" fill="none" stroke-linecap="square">
    <path d="M110 150 V110 H150"/>
    <path d="M402 150 V110 H362"/>
    <path d="M110 250 V290 H150"/>
    <path d="M402 250 V290 H362"/>
  </g>
  <!-- scan line -->
  <rect x="130" y="196" width="252" height="10" rx="5" fill="#FF5A1F"/>
</svg>
